<?xml version="1.0" encoding="utf-8"?>
<!-- Generator: Adobe Illustrator 24.0.1, SVG Export Plug-In . SVG Version: 6.00 Build 0)  -->
<svg version="1.1"
	 id="svg2" inkscape:export-filename="C:\Users\Rick\Pictures\Art &amp; Design\Firefly Farm\fireflyfarmlogo_forprinting.tiff" inkscape:export-xdpi="200" inkscape:export-ydpi="200" inkscape:version="0.91 r13725" sodipodi:docname="fireflyjar2.svg" xmlns:cc="http://creativecommons.org/ns#" xmlns:dc="http://purl.org/dc/elements/1.1/" xmlns:inkscape="http://www.inkscape.org/namespaces/inkscape" xmlns:rdf="http://www.w3.org/1999/02/22-rdf-syntax-ns#" xmlns:sodipodi="http://sodipodi.sourceforge.net/DTD/sodipodi-0.dtd" xmlns:svg="http://www.w3.org/2000/svg"
	 xmlns="http://www.w3.org/2000/svg" xmlns:xlink="http://www.w3.org/1999/xlink" x="0px" y="0px" viewBox="0 0 576 576"
	 style="enable-background:new 0 0 576 576;" xml:space="preserve">
<style type="text/css">
	.st0{fill:#53A9F6;}
	.st1{fill:none;stroke:#53A9F6;stroke-width:4.7086;stroke-linecap:round;stroke-linejoin:round;stroke-miterlimit:3.2;}
	.st2{fill:url(#ellipse5158_1_);}
	.st3{opacity:0.6;fill:url(#ellipse5160_1_);enable-background:new    ;}
	.st4{fill:#FF391A;}
	.st5{fill:url(#ellipse4268_1_);}
	.st6{fill:url(#ellipse4276_1_);}
	.st7{fill:url(#ellipse4280_1_);}
	.st8{fill:url(#ellipse4284_1_);}
	.st9{fill:url(#ellipse4288_1_);}
	.st10{fill:url(#ellipse4298_1_);}
	.st11{fill:url(#ellipse4302_1_);}
	.st12{fill:url(#ellipse4306_1_);}
	
		.st13{opacity:0.99;fill-rule:evenodd;clip-rule:evenodd;fill:#FFFFFF;fill-opacity:0.4902;stroke:#E6E6E6;stroke-width:2.6484;stroke-miterlimit:3.2;enable-background:new    ;}
	.st14{filter:url(#filter4907);}
	.st15{fill:none;stroke:#FDD63B;stroke-width:5;}
	.st16{fill-rule:evenodd;clip-rule:evenodd;fill:#CCCCCC;stroke:#E6E6E6;stroke-width:0.8664;stroke-miterlimit:3.2;}
	.st17{fill-rule:evenodd;clip-rule:evenodd;fill:#B3B3B3;stroke:#E6E6E6;stroke-width:0.8664;stroke-miterlimit:3.2;}
	.st18{fill-rule:evenodd;clip-rule:evenodd;fill:#9D9D9D;stroke:#DBDBDB;stroke-width:0.8664;stroke-miterlimit:3.2;}
	.st19{fill-rule:evenodd;clip-rule:evenodd;fill:#E6E6E6;stroke:#E6E6E6;stroke-width:0.8664;stroke-miterlimit:3.2;}
	.st20{fill-rule:evenodd;clip-rule:evenodd;fill:#CCCCCC;stroke:#B3B3B3;stroke-width:0.7633;stroke-miterlimit:3.2;}
	.st21{fill-rule:evenodd;clip-rule:evenodd;fill:#CCCCCC;}
	.st22{fill:none;stroke:#E6E6E6;stroke-width:3.5312;stroke-linecap:round;stroke-linejoin:round;stroke-miterlimit:3.2;}
	.st23{fill-rule:evenodd;clip-rule:evenodd;fill:#B3B3B3;stroke:#999999;stroke-width:0.8664;stroke-miterlimit:3.2;}
	.st24{fill:none;stroke:#999999;stroke-width:2.5992;stroke-linecap:round;stroke-linejoin:round;stroke-miterlimit:3.2;}
	.st25{fill:url(#ellipse5194_1_);}
	.st26{fill:url(#ellipse5196_1_);}
	.st27{fill:url(#ellipse5198_1_);}
	.st28{fill:url(#ellipse5200_1_);}
	.st29{fill:url(#ellipse5202_1_);}
	.st30{fill:url(#ellipse5204_1_);}
	.st31{fill:url(#ellipse5206_1_);}
	.st32{fill:url(#ellipse5208_1_);}
	.st33{fill:url(#ellipse5210_1_);}
	.st34{fill:url(#ellipse5212_1_);}
	
		.st35{fill:#FF391A;stroke:#F8D12F;stroke-width:1.4722;stroke-linecap:round;stroke-linejoin:round;stroke-miterlimit:3.2;stroke-opacity:0.9922;}
	
		.st36{fill:#FF391A;stroke:#FAD22E;stroke-width:1.6;stroke-linecap:round;stroke-linejoin:round;stroke-miterlimit:3.2;stroke-opacity:0.9804;}
	.st37{fill:none;}
	
		.st38{fill-rule:evenodd;clip-rule:evenodd;fill:#FF391A;stroke:#FF391A;stroke-width:0.9;stroke-linejoin:round;stroke-miterlimit:5.76;}
	
		.st39{fill-rule:evenodd;clip-rule:evenodd;fill:#FF391A;stroke:#FF391A;stroke-width:0.5;stroke-linejoin:round;stroke-miterlimit:3.2;}
	.st40{filter:url(#filter5148);}
	.st41{fill:#E2C24D;}
	.st42{filter:url(#filter5140);}
	.st43{filter:url(#filter5124);}
	.st44{filter:url(#filter5108);}
	.st45{filter:url(#filter5116);}
	.st46{fill:url(#path4198_1_);}
	.st47{opacity:0.6;fill:url(#ellipse5152_1_);enable-background:new    ;}
	.st48{opacity:0.6;fill:url(#ellipse6743_1_);enable-background:new    ;}
	
		.st49{opacity:0.99;fill-rule:evenodd;clip-rule:evenodd;fill:#FFFFFF;fill-opacity:0.4902;stroke:#E6E6E6;stroke-width:3.0631;stroke-miterlimit:3.2;enable-background:new    ;}
	.st50{fill-rule:evenodd;clip-rule:evenodd;fill:#CCCCCC;stroke:#E6E6E6;stroke-width:1.0021;stroke-miterlimit:3.2;}
	.st51{fill-rule:evenodd;clip-rule:evenodd;fill:#B3B3B3;stroke:#E6E6E6;stroke-width:1.0021;stroke-miterlimit:3.2;}
	.st52{fill-rule:evenodd;clip-rule:evenodd;fill:#9D9D9D;stroke:#DBDBDB;stroke-width:1.0021;stroke-miterlimit:3.2;}
	.st53{fill-rule:evenodd;clip-rule:evenodd;fill:#E6E6E6;stroke:#E6E6E6;stroke-width:1.0021;stroke-miterlimit:3.2;}
	.st54{fill-rule:evenodd;clip-rule:evenodd;fill:#CCCCCC;stroke:#B3B3B3;stroke-width:0.8828;stroke-miterlimit:3.2;}
	.st55{filter:url(#filter5363);}
	.st56{fill-rule:evenodd;clip-rule:evenodd;fill:url(#SVGID_1_);}
	.st57{fill:none;stroke:#E6E6E6;stroke-width:4.0841;stroke-linecap:round;stroke-linejoin:round;stroke-miterlimit:3.2;}
	.st58{fill-rule:evenodd;clip-rule:evenodd;fill:#B3B3B3;stroke:#999999;stroke-width:1.0021;stroke-miterlimit:3.2;}
	.st59{fill:none;stroke:#999999;stroke-width:3.0062;stroke-linecap:round;stroke-linejoin:round;stroke-miterlimit:3.2;}
	.st60{fill:url(#path4335_1_);}
	.st61{fill:url(#ellipse4170_1_);}
	.st62{fill:url(#ellipse4174_1_);}
	.st63{fill:url(#ellipse4178_1_);}
	.st64{fill:url(#ellipse4182_1_);}
	.st65{fill:url(#ellipse4186_1_);}
	.st66{fill:url(#ellipse4190_1_);}
	.st67{fill:url(#ellipse4194_1_);}
	.st68{fill:url(#ellipse4605_1_);}
	.st69{fill:url(#ellipse4272_1_);}
	
		.st70{fill:#DE290D;stroke:#F8D12F;stroke-width:1.7027;stroke-linecap:round;stroke-linejoin:round;stroke-miterlimit:3.7011;stroke-opacity:0.9922;}
	
		.st71{fill:#DE290D;stroke:#FAD22E;stroke-width:2.3132;stroke-linecap:round;stroke-linejoin:round;stroke-miterlimit:3.7011;stroke-opacity:0.9804;}
	.st72{font-family:'ArialMT';}
	.st73{font-size:18.5053px;}
</style>
<filter  height="1.2570042" id="filter5363" inkscape:collect="always" style="color-interpolation-filters:sRGB" width="1.0782737" x="-0.03913686" y="-0.12850211">
	<feGaussianBlur  id="feGaussianBlur5365" inkscape:collect="always" stdDeviation="3.9319253"></feGaussianBlur>
</filter>
<filter  height="1.576" id="filter5148" inkscape:collect="always" style="color-interpolation-filters:sRGB" width="1.192" x="-0.096" y="-0.288">
	<feGaussianBlur  id="feGaussianBlur5150" inkscape:collect="always" stdDeviation="0.6"></feGaussianBlur>
</filter>
<filter  height="1.576" id="filter5140" inkscape:collect="always" style="color-interpolation-filters:sRGB" width="1.192" x="-0.096" y="-0.288">
	<feGaussianBlur  id="feGaussianBlur5142" inkscape:collect="always" stdDeviation="0.6"></feGaussianBlur>
</filter>
<filter  height="1.576" id="filter5124" inkscape:collect="always" style="color-interpolation-filters:sRGB" width="1.192" x="-0.096" y="-0.288">
	<feGaussianBlur  id="feGaussianBlur5126" inkscape:collect="always" stdDeviation="0.6"></feGaussianBlur>
</filter>
<filter  height="1.576" id="filter5116" inkscape:collect="always" style="color-interpolation-filters:sRGB" width="1.192" x="-0.096" y="-0.288">
	<feGaussianBlur  id="feGaussianBlur5118" inkscape:collect="always" stdDeviation="0.6"></feGaussianBlur>
</filter>
<filter  height="1.576" id="filter5108" inkscape:collect="always" style="color-interpolation-filters:sRGB" width="1.192" x="-0.096" y="-0.288">
	<feGaussianBlur  id="feGaussianBlur5110" inkscape:collect="always" stdDeviation="0.6"></feGaussianBlur>
</filter>
<filter  height="1.0966767" id="filter4907" inkscape:collect="always" style="color-interpolation-filters:sRGB" width="1.1581549" x="-0.079077456" y="-0.048338359">
	<feGaussianBlur  id="feGaussianBlur4909" inkscape:collect="always" stdDeviation="6.8692028"></feGaussianBlur>
</filter>
<sodipodi:namedview  bordercolor="#666666" borderopacity="1.0" id="base" inkscape:current-layer="layer1" inkscape:cx="236.09868" inkscape:cy="439.19029" inkscape:document-units="px" inkscape:pageopacity="1" inkscape:pageshadow="2" inkscape:window-height="705" inkscape:window-maximized="1" inkscape:window-width="1366" inkscape:window-x="-8" inkscape:window-y="-8" inkscape:zoom="0.49497474" pagecolor="#ffffff" showgrid="false" showguides="true" units="in">
	<inkscape:grid  id="grid4138" type="xygrid"></inkscape:grid>
</sodipodi:namedview>
<g id="layer3" transform="translate(0,-332.36214)" inkscape:groupmode="layer" inkscape:label="Layer 3">
	<circle id="circle5154" inkscape:export-xdpi="150" inkscape:export-ydpi="150" class="st0" cx="919.6" cy="649.2" r="240">
	</circle>
	<circle id="circle5156" class="st1" cx="919.6" cy="649.2" r="247.6"/>
</g>
<g id="layer2" transform="translate(0,-332.36214)" inkscape:groupmode="layer" inkscape:label="Layer 2">
	
		<radialGradient id="ellipse5158_1_" cx="299.4248" cy="490.5243" r="176.2717" gradientTransform="matrix(1.2345 0 0 -1.2904 548.0726 1294.6173)" gradientUnits="userSpaceOnUse">
		<stop  offset="0" style="stop-color:#FFD42A"/>
		<stop  offset="1" style="stop-color:#FFD42A;stop-opacity:0"/>
	</radialGradient>
	<ellipse id="ellipse5158" class="st2" cx="917.7" cy="661.6" rx="217.6" ry="227.5"/>
	
		<radialGradient id="ellipse5160_1_" cx="299.4248" cy="490.5243" r="176.2717" gradientTransform="matrix(1.2345 0 0 -1.2904 548.0726 1294.6173)" gradientUnits="userSpaceOnUse">
		<stop  offset="0" style="stop-color:#FFD42A"/>
		<stop  offset="1" style="stop-color:#FFD42A;stop-opacity:0"/>
	</radialGradient>
	<ellipse id="ellipse5160" class="st3" cx="917.7" cy="661.6" rx="217.6" ry="227.5"/>
	
		<image style="overflow:visible;enable-background:new    ;" width="263" height="192" id="image6755" xlink:href="A782EC91.png"  transform="matrix(1.6023 0 0 1.8165 -603.4433 209.5031)">
	</image>
</g>
<path id="path4251" inkscape:connector-curvature="0" class="st4" d="M-389.4-69.3c-6.9-5.3-12.7-19.5-13.8-33.9
	c-0.3-3.4-0.6-6.2-0.7-6.2c-0.1,0-2.2,1.3-4.5,2.9c-6.1,4-18,4.2-22.6,0.3c-6.7-5.7-3.6-13.9,8.1-21.9c5.8-4,8.7-5.1,13.9-5.6
	c6.5-0.6,6.6-0.7,7.8-5c1.2-4,1.5-4.4,5.3-4.4c9,0,11.5,6.6,8,21.6c-1.2,5.2-1.3,7.4-0.4,14.3c0.6,4.5,1.9,11.4,2.9,15.3
	c1.8,7.1,7.5,17.3,9.6,17.3c0.6,0,3.8-3.9,7-8.7c6.3-9.4,10.5-19.7,15.2-37.7l2.9-10.8l4.1,1c2.3,0.5,9.5,1.3,16,1.8
	c11.3,0.8,12,1,13.8,4.1c1.1,1.8,3,8.3,4.4,14.4c1.3,6.1,3.2,12.6,4.2,14.5c4.9,9,14.8-0.8,17.2-17.1c0.6-3.8,0.2-5-3-10.6
	c-2-3.5-3.6-6.9-3.6-7.6c0-4.4,11.4-7.1,14.7-3.4c2.4,2.7,3.1,2.4,3.1-1.2c0-5.3,1.9-9.5,5.2-11.8c4-2.8,13.6-2,21.1,1.8
	c2.9,1.5,5.4,2.5,5.6,2.3c0.1-0.2-0.4-4.2-1.2-8.9c-1.3-7.6-1.3-9.2-0.2-13.4c2.5-9.4,11.5-14.3,18.8-10.2c2.1,1.2,6.5,5.4,10,9.4
	c14,16.5,24.8,24.7,34.1,26l4.8,0.6l-0.6-4.9c-0.9-7.1-4.8-17.6-11.5-31.2c-3.2-6.5-5.9-12.8-5.9-13.9c0-2.1,2.6-4.6,4.7-4.6
	c1.8,0,12.3,20.6,16.5,32.3c4.7,13.3,5.1,16.8,2.7,24.1c-3.9,11.7-13.7,17.8-24.1,15c-7.2-2-14.8-8.7-29.3-26.1
	c-6.5-7.8-12.4-14.2-13-14.2c-2,0-1.2,6.9,1.6,13.9c1.5,3.8,6,11.5,10,17.3l7.3,10.4l-3.2,4.3c-1.8,2.4-4.9,5-6.9,5.9
	c-3.4,1.5-4.1,1.3-8.3-1.7c-2.5-1.8-7.7-6.9-11.5-11.3c-15.4-17.7-20.2-19.8-20.2-8.7c0,5.4,4.4,16.3,9.7,24.4
	c3,4.5,5.4,8.6,5.4,9.2c0,2.1-7.7,6.1-11.9,6.1c-5.3,0-9.8-2.9-12.8-8.5l-2.3-4.2l-2.4,5.5c-4.5,10.4-11.5,15.8-22.2,17.1
	c-10.7,1.3-15.8-5.3-18.2-23.7c-0.7-5.6-1.8-10.8-2.4-11.7c-0.6-0.9-3.6-2-6.5-2.4l-5.4-0.8l-6.4,15.8
	c-6.9,17.1-16.6,33.4-22.4,37.7C-376.1-65.8-385-65.9-389.4-69.3L-389.4-69.3z M-406.7-118.4c1.5-2.1,2.4-4.2,2.1-4.7
	c-1.4-2-14,9.2-14,12.5C-418.6-108.4-409.4-114.4-406.7-118.4L-406.7-118.4z M-505.2-131.8c-4.7-3.2-8-7.5-7.4-9.8
	c0.2-0.7,5.2-8.9,11.2-18.1c6-9.2,10.9-17,10.9-17.2c0-0.3-2.2-2.2-4.9-4.3c-5.3-4.2-6.2-6-4.9-9.7c1.7-4.6,4.2-4.4,10.1,1l5.5,5.1
	l8.2-11.3c4.5-6.2,8.2-11.5,8.2-11.8c0-0.3-2.8-2.5-6.2-4.9c-6.2-4.4-7.5-6.2-6.6-9.7c1.1-4,3.9-3.5,11,1.8c5,3.8,7.7,5.1,9.2,4.5
	c2.8-1,7.5,2.5,8.7,6.5c1.4,4.4,23.2,18.4,40.3,25.9c9.2,4,10.2,5,8.3,7.8c-1.2,1.8-2.1,1.7-8.8-0.6c-10.1-3.4-24.3-10.3-34.9-17
	c-4.8-3-9-5-9.4-4.3c-0.4,0.6-3.5,5.9-7,11.6c-3.5,5.8-6.4,11.1-6.4,11.8c0,1.6,16.5,12.9,26.7,18.2c7.7,4.1,16.1,7.9,22.9,10.5
	c2.9,1.1,3.8,2,3.8,4.2c0,2.5-0.4,2.7-4.2,1.9c-6.4-1.2-26.6-10.5-41.4-19c-12.9-7.5-13.2-7.6-14.7-5.1c-0.8,1.4-5.6,9.8-10.8,18.7
	c-6.4,11.1-9.9,16.2-11.1,16.2C-500-128.8-502.8-130.1-505.2-131.8L-505.2-131.8z"/>
<radialGradient id="ellipse4268_1_" cx="478.7618" cy="121.7442" r="35.6071" gradientTransform="matrix(0.7234 -1.615890e-02 -1.256051e-02 -0.7529 -509.0284 415.6551)" gradientUnits="userSpaceOnUse">
	<stop  offset="0" style="stop-color:#FFD42A"/>
	<stop  offset="1" style="stop-color:#FFD42A;stop-opacity:0"/>
</radialGradient>
<ellipse id="ellipse4268" class="st5" cx="-164.2" cy="316.3" rx="28.8" ry="31.4"/>
<radialGradient id="ellipse4276_1_" cx="478.7618" cy="121.7442" r="35.6071" gradientTransform="matrix(0.7234 -1.615890e-02 -1.256051e-02 -0.7529 -516.4007 331.0813)" gradientUnits="userSpaceOnUse">
	<stop  offset="0" style="stop-color:#FFD42A"/>
	<stop  offset="1" style="stop-color:#FFD42A;stop-opacity:0"/>
</radialGradient>
<ellipse id="ellipse4276" class="st6" cx="-171.6" cy="231.7" rx="28.8" ry="31.4"/>
<radialGradient id="ellipse4280_1_" cx="478.7617" cy="121.7441" r="35.6072" gradientTransform="matrix(0.7234 -1.615890e-02 -1.256051e-02 -0.7529 -431.9679 310.7239)" gradientUnits="userSpaceOnUse">
	<stop  offset="0" style="stop-color:#FFD42A"/>
	<stop  offset="1" style="stop-color:#FFD42A;stop-opacity:0"/>
</radialGradient>
<ellipse id="ellipse4280" class="st7" cx="-87.1" cy="211.3" rx="28.8" ry="31.4"/>
<radialGradient id="ellipse4284_1_" cx="478.7617" cy="121.7442" r="35.6071" gradientTransform="matrix(0.7234 -1.615890e-02 -1.256051e-02 -0.7529 -417.8622 213.2858)" gradientUnits="userSpaceOnUse">
	<stop  offset="0" style="stop-color:#FFD42A"/>
	<stop  offset="1" style="stop-color:#FFD42A;stop-opacity:0"/>
</radialGradient>
<ellipse id="ellipse4284" class="st8" cx="-73" cy="113.9" rx="28.8" ry="31.4"/>
<radialGradient id="ellipse4288_1_" cx="478.7618" cy="121.7441" r="35.6072" gradientTransform="matrix(0.7234 -1.615890e-02 -1.256051e-02 -0.7529 -504.6612 500.2126)" gradientUnits="userSpaceOnUse">
	<stop  offset="0" style="stop-color:#FFD42A"/>
	<stop  offset="1" style="stop-color:#FFD42A;stop-opacity:0"/>
</radialGradient>
<ellipse id="ellipse4288" class="st9" cx="-159.8" cy="400.8" rx="28.8" ry="31.4"/>
<radialGradient id="ellipse4298_1_" cx="478.7617" cy="121.744" r="35.6072" gradientTransform="matrix(0.7234 -1.615890e-02 -1.256051e-02 -0.7529 -426.6893 610.2197)" gradientUnits="userSpaceOnUse">
	<stop  offset="0" style="stop-color:#FFD42A"/>
	<stop  offset="1" style="stop-color:#FFD42A;stop-opacity:0"/>
</radialGradient>
<ellipse id="ellipse4298" class="st10" cx="-81.9" cy="510.8" rx="28.8" ry="31.4"/>
<radialGradient id="ellipse4302_1_" cx="478.7618" cy="121.744" r="35.6072" gradientTransform="matrix(0.7234 -1.615890e-02 -1.256051e-02 -0.7529 -709.1299 299.7884)" gradientUnits="userSpaceOnUse">
	<stop  offset="0" style="stop-color:#FFD42A"/>
	<stop  offset="1" style="stop-color:#FFD42A;stop-opacity:0"/>
</radialGradient>
<ellipse id="ellipse4302" class="st11" cx="-364.3" cy="200.4" rx="28.8" ry="31.4"/>
<radialGradient id="ellipse4306_1_" cx="478.7617" cy="121.744" r="35.6072" gradientTransform="matrix(0.7234 -1.615890e-02 -1.256051e-02 -0.7529 -390.2745 425.2869)" gradientUnits="userSpaceOnUse">
	<stop  offset="0" style="stop-color:#FFD42A"/>
	<stop  offset="1" style="stop-color:#FFD42A;stop-opacity:0"/>
</radialGradient>
<ellipse id="ellipse4306" class="st12" cx="-45.4" cy="325.9" rx="28.8" ry="31.4"/>
<path id="path4620" inkscape:connector-curvature="0" class="st4" d="M371.7-42.2c-1.1-1-2.8-3.5-3.8-5.6c-1.6-3.5-1.8-4.4-1.5-10
	c0.2-5.3,0.6-6.9,2.7-11.5c3.1-6.8,8-12.1,13.7-15c3.9-1.9,4.7-2.1,9.5-1.7c5.4,0.4,13.8,3.4,21.4,7.7c2,1.1,3.9,2,4.2,2
	c0.6,0,11.4-8.6,16.2-12.9l2.7-2.4l-4-0.9c-8-1.8-13.9-6.2-16.9-12.8c-1.8-3.9-2.5-11-1.6-15.3l0.7-3.1l-2.8,0.4
	c-1.5,0.2-6.1,0.6-10.2,0.9c-6.5,0.4-8,0.3-12-1c-6.2-2-10.8-5.7-13.1-10.7c-1.8-3.9-3.2-12.1-3.2-19.3c0-3-0.2-3.4-1.2-3
	c-6.8,2.8-20.4,4.9-28.9,4.4l-6.3-0.4l4.3,4.7c5.6,6.2,7.6,10.2,7.9,16.7c0.3,6.3-1.3,10.3-6.4,15.6c-7.6,7.9-18.1,11.1-22.8,6.9
	c-4.2-3.7-6.2-14.2-7.1-36.3l-0.5-11.6l-2.7-1.5c-2.1-1.1-2.7-1.9-2.7-3.2c0-1.4,0.4-1.8,2.8-2.3l2.8-0.6v-5.2v-5.2l-4.2,3.2
	c-6.9,5.2-12.5,7.6-18.4,8c-6,0.4-12.2-1.1-16.7-3.9c-3.8-2.3-8.9-7.4-10.8-10.6l-1.4-2.4l-3.8,3.8c-4.8,4.9-9.6,7.4-16.2,8.6
	c-11.9,2.2-17.8-2.4-22.6-17.7c-1.2-3.6-2.5-7-3.1-7.5c-0.6-0.5-2.1-0.7-4.1-0.4c-1.7,0.2-4.7,0.6-6.7,0.9c-1.9,0.3-3.8,0.8-4.1,1.3
	c-0.9,1.3-2.7,9.3-4.1,19.1c-2.4,16.5-4.7,22.7-10.4,28.7c-4.5,4.7-8.3,6.5-14,6.5c-4.1,0-5.2-0.3-9-2.5c-2.4-1.4-6.6-4.7-9.3-7.4
	c-4.9-4.9-13.4-15.4-13.4-16.6c0-1.3,5-5.8,8.3-7.4c6.1-3,6.9-2.7,12.4,5.2c15.3,21.6,20.7,24.5,25.3,13.6
	c2.3-5.5,2.8-11.1,2.6-27.5c-0.2-12.4,0-15.7,0.7-16.2c0.5-0.3,2.7-0.8,5-1c2.3-0.2,8.3-1.2,13.3-2.2c10.8-2.1,20.1-2.4,22.4-0.7
	c2.1,1.5,3.8,5.4,5.5,12.4c2.7,11.3,5.1,14.7,9.6,13.8c2.9-0.6,7.1-4.4,9.9-9c2.1-3.4,2.3-4.1,2.3-9.7c0.1-6.6,1.3-10.1,4.7-13.6
	c6.9-6.9,23.8-5.9,27.7,1.7c2,3.9-2.9,11.3-10.6,15.8c-1.9,1.1-3.5,2.4-3.5,2.8c0,1.4,5.2,9.3,8,12.2c1.5,1.5,4,3.3,5.6,3.8
	c2.7,1,3.1,0.9,5.8-0.3c6.5-3.1,17.7-13.5,18.3-17.1c0.1-0.8,0.8-4.3,1.4-7.8c2.3-13.1,7.5-23.5,16.7-33.3c4.9-5.2,7.1-6.9,11.4-9.1
	c13.3-6.7,25.9-2.7,31.9,10c1.8,3.8,2.2,5.7,2.4,10.5c0.3,5.3,0.1,6.3-1.5,9.8c-2.2,4.6-5.3,7.7-10.7,10.4
	c-6.7,3.3-10.9,4.1-29.9,5.9l-4.5,0.4l-0.7,3.7c-1,4.7-2.5,15.6-3,22.1l-0.4,5l3.6,1c4.5,1.2,20.8,1.2,26.3,0
	c5.2-1.2,12-3.5,15.1-5.1c2.1-1.1,2.5-1.7,3.2-5.4c2.1-9.9,8.8-21.4,18.1-30.8c18-18.3,36.5-15.4,32.5,5.1
	c-1.4,7.1-3.9,11.5-10.4,18.5c-5.9,6.3-10.9,9.8-19.4,13.7l-5,2.3l-1.2,4.5c-2.8,10.7-2.9,22.9-0.2,26c2.2,2.6,9.2,2.3,22.3-1.1
	l7.1-1.8l4.5-5.6c2.5-3.1,5.1-5.8,5.8-6c0.7-0.2,2.1,0,3.2,0.6c3.4,1.8,9.5,9.8,9.5,12.3c0,0.4-2.7,3.5-5.9,6.9
	c-7.1,7.5-11.3,15.3-10.6,19.7c0.8,5.5,4.5,7.2,11.9,5.6c6.4-1.4,11.7-4.6,15.2-8.9c4-5,5.4-5.6,8.3-3.5c3.5,2.5,6.6,7.8,7,11.8
	l0.3,3.4l-5.2,4.2c-2.9,2.3-8.4,6.8-12.3,10.1c-3.9,3.3-9.4,7.7-12.3,9.8c-5.9,4.4-6,4.1,1.8,6.8c6.2,2.2,14.7,4.1,26.1,5.7
	c8.4,1.2,8.6,1.3,9.9,3.4c1.5,2.6,1.6,5.2,0.3,5.8c-1.2,0.5-10.9-1.3-19.9-3.7c-8-2.1-14.5-4.5-22-8.2l-5.8-2.8L417.8-58
	c-11.9,7.2-24.6,13.2-33.2,15.9C377.1-39.9,374.3-39.9,371.7-42.2L371.7-42.2z M379.3-51.7c5.9-2.1,17-8.6,25.9-15
	c4.4-3.1,8.1-5.9,8.2-6.2c0.4-0.7-11.1-5.9-15.2-6.9c-11.1-2.8-18.2,1.1-23.5,12.6c-1.7,3.8-2.1,5.4-2.1,9.6c0,4.6,0.9,7.3,2.3,7.3
	C375.2-50.3,377.1-50.9,379.3-51.7L379.3-51.7z M334.1-114.5c4.2-2.2,8.1-6.4,9.4-10.1c2.6-7.3-2.4-16.6-13-24
	c-2.1-1.5-4-2.4-4.2-2.2c-0.3,0.3-0.5,8-0.5,17.2c0,17.6,0.5,21.3,3,21.3C329.4-112.3,331.8-113.3,334.1-114.5L334.1-114.5z
	 M400.2-172.9c4.9-3.5,9.7-8.6,12.5-13.3c2.3-3.8,3.8-7.2,3.2-7.2c-0.2,0-2,1.1-3.9,2.5c-4.5,3.2-11.7,11.2-14.3,16
	C394.5-169.2,394.8-169,400.2-172.9L400.2-172.9z M277.1-192.1c6.9-5.5,8.4-8.7,5.4-11.8c-1.8-1.8-5.6-3.1-7.2-2.5
	c-1.9,0.6-2.8,4.2-2.4,9.4C273.3-190.1,273.9-189.5,277.1-192.1z M342.7-195.9c4.1-0.6,8.9-1.4,10.6-1.9c4.9-1.2,11.3-4.6,13.1-7
	c3.9-4.9,3.7-13.8-0.4-20.2c-3.2-5-3.8-5.2-8.3-2.7c-4.6,2.5-14.2,12.4-17.6,18c-3.3,5.5-6.4,11.4-6.9,13.2
	C332.7-194.5,332.7-194.5,342.7-195.9L342.7-195.9z M31.7-63.1c-0.4-0.5-0.8-1.4-0.8-2c0-1.5,4.1-13.9,7.1-21.6
	c1.8-4.7,2.1-6.1,1.5-7.1c-1.8-3.1,2.4-11.9,8.2-17.4c1.7-1.5,4.9-5.9,7.1-9.8c8.8-14.8,20.6-30,33.5-43c8-8.1,21.9-20.4,24.7-22
	c2.8-1.5,4.7-1.4,4.7,0.3c0,1.4-1.1,2.5-11.4,12.1c-18.5,17.2-35.1,38.2-47.3,60l-1.4,2.6l11.4,4.8c6.2,2.6,11.5,4.6,11.6,4.5
	c0.1-0.2,2.3-3.6,4.8-7.6c8.9-14.3,21.9-30.3,34.1-41.9c8.2-7.8,10.6-9.7,12.9-9.7c2.6,0,1.8,2.6-1.7,5.9
	c-7.6,7.1-18.1,18.3-23.2,24.8c-8.5,10.9-21.1,30.9-20.1,31.9c0.3,0.3,7.6,3.8,16.3,7.9l15.8,7.4l-0.1,2.6c-0.1,3-3,8.5-5.6,10.5
	c-1.7,1.3-1.7,1.3-17.4-4.3C87.6-77.2,80-79.9,79.3-80c-1-0.2-1.7,1.2-3.9,6.8c-1.5,3.9-3,7.4-3.3,7.9c-1,1.3-4.9,1.8-6.5,0.9
	c-2.1-1.2-1.8-3.5,1.6-11.1c1.7-3.7,3-7,3-7.3c0-0.3-4-1.7-8.9-3.2c-4.9-1.5-10-3.1-11.4-3.6l-2.5-0.9l-1.6,3.9
	c-0.9,2.2-2.8,7.5-4.2,11.9c-3,9.1-3.7,10.6-5.9,11.6C33.7-62,32.7-62,31.7-63.1L31.7-63.1z M133.1-174.7c0-3.1,8.6-9.8,12.1-9.4
	c4.7,0.5,2.6,4.1-4.7,8.2C136.3-173.5,133.1-173,133.1-174.7z"/>
<path id="path5162" inkscape:connector-curvature="0" sodipodi:nodetypes="cccscscccccc" class="st13" d="M822.2,170.2l0,5.7
	c-0.1,4.5-8.4,5-8.2,15.2V459c0,35.2,48.8,53.5,104.1,53.5c55.3,0,104.1-18.2,104.1-53.5V191.2c0-10.3-8.1-10.8-8.2-15.2l0-5.7
	c-33.5,0-68-3.8-99.2,6.2C880.8,167.1,851.9,170.1,822.2,170.2L822.2,170.2z"/>
<g id="path5164" inkscape:connector-curvature="0" sodipodi:nodetypes="cccscscccccc" class="st14">
	<path class="st15" d="M822.2,170.2l0,5.7c-0.1,4.5-8.4,5-8.2,15.2V459c0,35.2,48.8,53.5,104.1,53.5c55.3,0,104.1-18.2,104.1-53.5
		V191.2c0-10.3-8.1-10.8-8.2-15.2l0-5.7c-33.5,0-68-3.8-99.2,6.2C880.8,167.1,851.9,170.1,822.2,170.2L822.2,170.2z"/>
</g>
<path id="path5166" inkscape:connector-curvature="0" sodipodi:nodetypes="sss" class="st16" d="M819.4,167.4
	c0,19.1,196.9,19.1,196.9,0S819.4,148.3,819.4,167.4z"/>
<path id="path5168" inkscape:connector-curvature="0" sodipodi:nodetypes="sss" class="st17" d="M819.4,163.6
	c0,19.1,196.9,19.1,196.9,0S819.4,144.5,819.4,163.6z"/>
<path id="path5170" inkscape:connector-curvature="0" sodipodi:nodetypes="sss" class="st16" d="M819.4,159.7
	c0,19.1,196.9,19.1,196.9,0C1016.3,140.7,819.4,140.7,819.4,159.7z"/>
<path id="path5172" inkscape:connector-curvature="0" sodipodi:nodetypes="sss" class="st17" d="M819.4,155.9
	c0,19.1,196.9,19.1,196.9,0S819.4,136.9,819.4,155.9z"/>
<path id="path5174" inkscape:connector-curvature="0" sodipodi:nodetypes="sss" class="st16" d="M819.4,152.1
	c0,19.1,196.9,19.1,196.9,0C1016.3,133,819.4,133,819.4,152.1z"/>
<path id="path5176" inkscape:connector-curvature="0" sodipodi:nodetypes="sss" class="st17" d="M819.4,148.3
	c0,19.1,196.9,19.1,196.9,0C1016.3,129.2,819.4,129.2,819.4,148.3z"/>
<path id="path5178" inkscape:connector-curvature="0" sodipodi:nodetypes="sss" class="st16" d="M819.4,144.5
	c0,19.1,196.9,19.1,196.9,0C1016.3,125.4,819.4,125.4,819.4,144.5z"/>
<path id="path5180" inkscape:connector-curvature="0" sodipodi:nodetypes="sss" class="st18" d="M819.4,140.7
	c0,19.1,196.9,19.1,196.9,0C1016.3,121.6,819.4,121.6,819.4,140.7z"/>
<path id="path5182" inkscape:connector-curvature="0" sodipodi:nodetypes="sss" class="st19" d="M819.4,140.7
	c0,19.1,196.9,19.1,196.9,0C1016.3,121.6,819.4,121.6,819.4,140.7z"/>
<path id="path5184" inkscape:connector-curvature="0" sodipodi:nodetypes="sss" class="st20" d="M821.8,140.6
	c0.4,16.1,191.8,15.7,192,0.1C1014.1,124.9,821.4,124.7,821.8,140.6L821.8,140.6z"/>
<path id="path5186" inkscape:connector-curvature="0" sodipodi:nodetypes="sssss" class="st21" d="M821.4,468.9
	c-0.2,20.3,47.3,35.7,97.1,35.7c49.9,0,95.4-15.4,95.8-35.6c0.1-7.9-45.8-23.1-95.6-23.1C868.7,445.8,821.5,460.9,821.4,468.9z"/>
<path id="path5188" inkscape:connector-curvature="0" sodipodi:nodetypes="czcc" class="st22" d="M823.8,193.1
	c0,0,6.3,10.5,92.2,11.4c85.9,0.9,95.9-11.4,95.9-11.4l0,0"/>
<path id="path5190" inkscape:connector-curvature="0" sodipodi:nodetypes="szs" class="st23" d="M827.2,140.6
	c0.4,11.5,181,11.7,181.3,0.1C1008.8,129,826.8,129.5,827.2,140.6z"/>
<path id="path5192" inkscape:connector-curvature="0" sodipodi:nodetypes="csc" class="st24" d="M828.5,140.8
	c7.2-5.9,53.5-7.4,93.3-7.3c37.2,0.1,75.1,2.1,85.9,7"/>
<radialGradient id="ellipse5194_1_" cx="371.0007" cy="149.8444" r="35.6071" gradientTransform="matrix(0.9029 -2.030938e-02 -1.567636e-02 -0.9462 532.616 433.2821)" gradientUnits="userSpaceOnUse">
	<stop  offset="0" style="stop-color:#FFD42A"/>
	<stop  offset="1" style="stop-color:#FFD42A;stop-opacity:0"/>
</radialGradient>
<ellipse id="ellipse5194" class="st25" cx="865.2" cy="284" rx="36" ry="39.5"/>
<radialGradient id="ellipse5196_1_" cx="371.0007" cy="149.8444" r="35.6071" gradientTransform="matrix(0.9029 -2.030938e-02 -1.567636e-02 -0.9462 584.1998 481.6448)" gradientUnits="userSpaceOnUse">
	<stop  offset="0" style="stop-color:#FFD42A"/>
	<stop  offset="1" style="stop-color:#FFD42A;stop-opacity:0"/>
</radialGradient>
<ellipse id="ellipse5196" class="st26" cx="916.8" cy="332.3" rx="36" ry="39.5"/>
<radialGradient id="ellipse5198_1_" cx="371.0006" cy="149.8444" r="35.6071" gradientTransform="matrix(0.9029 -2.030938e-02 -1.567636e-02 -0.9462 635.7778 398.9766)" gradientUnits="userSpaceOnUse">
	<stop  offset="0" style="stop-color:#FFD42A"/>
	<stop  offset="1" style="stop-color:#FFD42A;stop-opacity:0"/>
</radialGradient>
<ellipse id="ellipse5198" class="st27" cx="968.4" cy="249.7" rx="36" ry="39.5"/>
<radialGradient id="ellipse5200_1_" cx="371.0006" cy="149.8444" r="35.6072" gradientTransform="matrix(0.9029 -2.030938e-02 -1.567636e-02 -0.9462 521.517 579.6254)" gradientUnits="userSpaceOnUse">
	<stop  offset="0" style="stop-color:#FFD42A"/>
	<stop  offset="1" style="stop-color:#FFD42A;stop-opacity:0"/>
</radialGradient>
<ellipse id="ellipse5200" class="st28" cx="854.1" cy="430.3" rx="36" ry="39.5"/>
<radialGradient id="ellipse5202_1_" cx="371.0007" cy="149.8443" r="35.6072" gradientTransform="matrix(0.9029 -2.030938e-02 -1.567636e-02 -0.9462 559.3703 543.414)" gradientUnits="userSpaceOnUse">
	<stop  offset="0" style="stop-color:#FFD42A"/>
	<stop  offset="1" style="stop-color:#FFD42A;stop-opacity:0"/>
</radialGradient>
<ellipse id="ellipse5202" class="st29" cx="892" cy="394.1" rx="36" ry="39.5"/>
<radialGradient id="ellipse5204_1_" cx="371.0007" cy="149.8443" r="35.6072" gradientTransform="matrix(0.9029 -2.030938e-02 -1.567636e-02 -0.9462 636.5956 584.5262)" gradientUnits="userSpaceOnUse">
	<stop  offset="0" style="stop-color:#FFD42A"/>
	<stop  offset="1" style="stop-color:#FFD42A;stop-opacity:0"/>
</radialGradient>
<ellipse id="ellipse5204" class="st30" cx="969.2" cy="435.2" rx="36" ry="39.5"/>
<radialGradient id="ellipse5206_1_" cx="371.0007" cy="149.8443" r="35.6071" gradientTransform="matrix(0.9029 -2.030938e-02 -1.567636e-02 -0.9462 558.3188 371.9868)" gradientUnits="userSpaceOnUse">
	<stop  offset="0" style="stop-color:#FFD42A"/>
	<stop  offset="1" style="stop-color:#FFD42A;stop-opacity:0"/>
</radialGradient>
<ellipse id="ellipse5206" class="st31" cx="890.9" cy="222.7" rx="36" ry="39.5"/>
<radialGradient id="ellipse5208_1_" cx="371.0007" cy="149.8444" r="35.6071" gradientTransform="matrix(0.9029 -2.030938e-02 -1.567636e-02 -0.9462 652.1341 515.2344)" gradientUnits="userSpaceOnUse">
	<stop  offset="0" style="stop-color:#FFD42A"/>
	<stop  offset="1" style="stop-color:#FFD42A;stop-opacity:0"/>
</radialGradient>
<ellipse id="ellipse5208" class="st32" cx="984.8" cy="365.9" rx="36" ry="39.5"/>
<radialGradient id="ellipse5210_1_" cx="371.0007" cy="149.8443" r="35.6071" gradientTransform="matrix(0.9029 -2.030938e-02 -1.567636e-02 -0.9462 567.423 627.9589)" gradientUnits="userSpaceOnUse">
	<stop  offset="0" style="stop-color:#FFD42A"/>
	<stop  offset="1" style="stop-color:#FFD42A;stop-opacity:0"/>
</radialGradient>
<ellipse id="ellipse5210" class="st33" cx="900.1" cy="478.6" rx="36" ry="39.5"/>
<radialGradient id="ellipse5212_1_" cx="478.7618" cy="121.7441" r="35.6071" gradientTransform="matrix(0.7234 -1.615890e-02 -1.256051e-02 -0.7529 611.4804 564.7857)" gradientUnits="userSpaceOnUse">
	<stop  offset="0" style="stop-color:#FFD42A"/>
	<stop  offset="1" style="stop-color:#FFD42A;stop-opacity:0"/>
</radialGradient>
<ellipse id="ellipse5212" class="st34" cx="956.3" cy="465.4" rx="28.8" ry="31.4"/>
<path id="path5214" inkscape:connector-curvature="0" class="st35" d="M807.9,467.9l-3.5-0.2l0.8-22.8c0.4-12.5,1.1-30.1,1.6-39.2
	c0.9-18.8-0.9-16.6,14.3-17c11.2-0.3,14.5,0.1,14.1,1.7c-0.4,1.6-2.2,2-7.8,2l-4.5,0v9v9h4.7c5.4,0,5.6,0.1,6.7,2.7l0.8,1.9l-6,0.4
	l-6,0.4l-0.8,3.7c-0.4,2-1.1,13.8-1.6,26.1l-0.8,22.4l-4.2,0.1C813.3,468.1,809.8,468,807.9,467.9L807.9,467.9z M838.5,466.2
	c0-4.8,12.1-37.1,19.2-51.1c2.6-5.3,6.2-13,7.9-17.3c1.7-4.2,3.3-8,3.7-8.4c0.4-0.4,2-0.6,4.4-0.5c4.5,0.2,7.9,1.9,9.5,4.8
	c0.6,1.1,1.1,11.4,1.1,22.9c0,11.5,0.6,26.4,1.3,33.3c0.7,6.8,0.8,13.6,0.3,15.2c-0.9,2.6-1.2,2.8-4.5,3c-1.9,0.1-5.9,0-8.7-0.2
	l-5.2-0.3v-4.4v-4.4H859h-8.4l-0.7,1.7c-0.4,0.9-0.8,2.8-1,4.3c-0.3,2.9-1.1,3.3-6.6,3.3C838.6,468.2,838.5,468.1,838.5,466.2
	L838.5,466.2z M866.7,447.7c0.4-4.2,1.3-10.9,1.9-14.9c1.3-7.9,1.6-24.3,0.5-23.8c-2.6,1.1-12.2,22.7-13.8,31c-0.6,3.5-1.8,8-2.6,10
	c-1.9,5-1.4,5.3,6.6,5.3h6.5L866.7,447.7L866.7,447.7z M895.1,467.7c-1.5-0.4-1.8-2.8-1.7-16.1c0.3-28.9,2.4-61.1,4-62
	c3.8-1.9,17.9,0.2,28.1,4.3c16.6,6.7,21.3,25.1,10.5,40.9c-2.9,4.2-8.2,9.6-11,11.1c-4.6,2.5-4.1,3.6,4.8,11.5
	c4.6,4.1,8.7,8.1,9.2,8.8c0.7,1.2,0.4,1.4-3.5,1.7c-2.4,0.2-6.1,0.2-8.4,0l-4-0.3l-3.5-6.8l-3.5-6.8l-0.8,6.6
	c-0.4,3.6-1.1,6.7-1.5,6.8C912.6,468.1,896.8,468.3,895.1,467.7L895.1,467.7z M920.3,441c12.4-18,11.7-33.5-2-44.6l-3.3-2.7l-0.3,25
	c-0.2,13.8,0,25.3,0.3,25.7C916,445.7,917.8,444.5,920.3,441z M945.6,466.3c0-6.4,20.1-73,22.9-76.2c1.4-1.5,5.9-1.7,8.8-0.3
	c2.2,1,4.4,6.9,7.4,19.7c1.9,8.2,5.5,27.7,5.5,29.9c0,4.9,4.3-6.6,9.6-25.7c2-7.2,4.6-15.7,5.8-18.8l2.1-5.7l3.7-0.2
	c2.2-0.1,4.8,0.2,6.4,0.8c3.6,1.2,5.3,6.2,8.5,24.1c1.4,7.7,3,16.7,3.7,20.1c0.7,3.4,1.7,10.6,2.4,16c0.7,5.4,1.5,11.3,1.8,13.1
	c0.4,1.8,0.2,3.6-0.4,4c-0.6,0.4-4.2,0.8-8.2,0.9c-11.6,0.5-11.3,0.8-13.9-13c-1.2-6.5-2.6-18.9-3.1-27.5c-0.5-9.1-1.2-15-1.8-13.9
	c-3.2,6.5-11.2,36.4-12.6,47.1c-0.5,3.6-1.4,6.7-2,6.9c-0.6,0.2-4.3,0.4-8.3,0.6c-5.4,0.2-7.3,0.1-7.7-0.4
	c-0.7-0.9-3.5-18.4-6.1-38.1c-1-7.8-2-14.2-2.2-14.3c-0.5-0.2-8.4,27.5-11.7,41.1c-1.4,5.8-3.1,10.9-3.8,11.2
	c-0.7,0.4-2.5,0.6-4.1,0.6C946,468.2,945.6,468,945.6,466.3L945.6,466.3z"/>
<path id="path5216" inkscape:connector-curvature="0" class="st36" d="M1048.5,453.5c-1.9-1.7-4.2-5.6-5.2-8.7
	c-3.9-12.2-1.3-36.3,5.6-51.9c6.1-13.8,11.7-18,32.7-24.5c4.6-1.4,4.9-2,10.8-19.4c3.4-9.9,6-18.2,5.8-18.4
	c-0.2-0.2-1.8,0.5-3.7,1.6c-1.9,1.1-5.9,2.3-9,2.5c-4.9,0.4-6-0.2-9.5-5.4c-3.4-5.1-4.1-7-4.6-14.7l-0.6-8.9l-9.6,9.9
	c-7.4,7.6-10.8,10-14.6,10.4c-10.4,1.1-14.6-5.3-18.2-28.2l-1.9-12.1l-5.6,6.7c-6.8,8.1-17.9,16.4-22.6,16.8l-3.5,0.3l5.8,7.7
	c10.8,14.3,13,30,7.1,50.3c-7.2,24.8-18,34.2-23.2,20.4c-3.3-8.6-6.5-27.3-9-51.6l-2.3-22.5l-3.3-2.8c-3.6-3.1-3.9-6.9-0.5-8.1
	c1.9-0.7,2.1-1.9,1.6-9.8l-0.7-9l-4.4,7.9c-6.9,12.4-10.9,15.8-18.4,15.6c-7.7-0.2-13.6-5.7-19.6-18.1l-3.8-8l-3.8,7.9
	c-6.5,13.5-17.5,16.6-24.5,7c-4.1-5.7-6.5-12.6-10.4-29.5c-1.5-6.8-3.7-13.4-4.8-14.5c-3.1-3.3-11.7-2-12.6,1.9
	c-0.4,1.8-1.2,14.2-1.7,27.7c-1.1,27.8-2.8,38.1-7.3,45.1c-8.9,13.8-20.5,5.7-34-23.7c-5.5-11.9-12-28.5-12.1-31.2
	c-0.2-2.8,4.8-6.2,9.7-6.6l4.9-0.4l6.2,16.4c12.4,32.9,18.8,44.3,22.1,38.8c3.7-6.3,4.6-18.2,3.1-43.3c-0.8-13.4-1.4-26.8-1.3-30
	l0.1-5.7l14.8-0.4c8.1-0.2,16.4-0.1,18.2,0.2c4.4,0.8,6.2,5.5,10.5,26.7c4.1,20.5,5.2,23.3,9,23c2.1-0.2,3.9-2.3,6.2-7.7
	c3.5-8.2,3.8-10.2,3.2-27.7c-0.7-20.6,4.3-30,15.6-29.5c5.2,0.2,6.7,1.1,9.1,5c1.5,2.6,2.9,6.4,3.1,8.5c0.4,5.9-3.4,18.7-7.1,23.8
	c-3.8,5.2-3.9,7-0.9,14.9c4.6,12.1,10.4,20.3,14.2,20c1.6-0.1,10.7-18,13.2-26c1.7-5.4,2.4-11.5,2.6-24.3
	c0.4-29.9,5.3-56.3,13.7-75.5c6.1-13.7,11.1-19.2,18.1-19.8c6.6-0.6,10,2.6,14.7,13.5c3,7,3.7,10.3,4.4,20.9
	c1.8,25.6-6.5,43.1-27.1,57c-10.4,7-10.1,5.5-8.8,38.3l0.8,20l3.1,0.7c8.3,2,23.3-8.5,32.8-23c4.5-6.9,4.9-8.2,4.9-17
	c0.1-20.2,7.2-55.1,15.1-73.9c7.9-18.7,17.8-26,22.3-16.4c1.6,3.4,2.1,7.2,2.4,16.7c0.6,19.1-4.1,38.1-15.4,61.9l-8.9,18.7
	l-0.1,12.7c-0.1,13,2.3,30.4,4.6,33.8c1.9,2.8,8.3-2.5,17.2-14.5c7.4-9.9,9-13,12.3-25c3.4-12.3,4.1-13.7,7.3-14.4
	c4.1-0.9,10.7,4.3,11,8.7c0.1,1.6-0.7,5.5-1.9,8.8c-3,8.6-6.7,27.2-7,34.9c-0.5,12.8,4.4,15.3,11.5,5.9c6.3-8.3,10.4-17,13.6-29
	c1.5-5.9,3.7-11.2,4.9-11.8c3.8-2,12.3,4.8,12.7,10.2c0.1,1.3-2.1,8.9-4.9,16.8c-15.5,44.4-18.3,53-17.9,53.7
	c1,1.5,17.5-10.4,29.1-21c11.9-10.8,16.1-12.4,16.6-6.2c0.4,5.9-37.8,34.5-47.1,35.2c-1.5,0.1-5.3,7.2-11.8,22.2
	c-10.2,23.4-23.8,50.1-30.4,59.2C1056.1,457.2,1053.3,457.8,1048.5,453.5L1048.5,453.5z M1057,436.8c5.7-8.8,26.3-59.3,24.9-61
	c-1.1-1.3-16.7,6-21.2,9.9c-7.7,6.8-12.9,22.3-13.2,39.8c-0.2,8.4,2.1,16.9,4.4,16.7C1052.9,442.1,1055.2,439.7,1057,436.8
	L1057,436.8z M999.1,376c9.9-18.8,7.8-38-5.6-51.4c-8.4-8.3-8.5-8-7,13.2c1.3,17.5,4.4,41.1,5.9,44.5C993.6,385,995,383.7,999.1,376
	z M937.9,255c3.1-6.9,4.2-12.6,3.2-16c-1.8-6-8.6-8-9.4-2.8c-1,6.7,1.3,24.1,3.1,24C935.2,260.1,936.6,257.8,937.9,255L937.9,255z
	 M1054.5,216.7c1.5-7.2,2.5-14.2,2.1-15.5c-1.3-4.7-11.7,30.5-12.7,42.9C1043.2,252.4,1051.5,231,1054.5,216.7z M993.6,233.8
	c16.5-12.3,22.6-28.6,18.3-48.3c-1.8-8.3-5.7-16-8-15.8c-2.1,0.2-9,17.2-12.6,30.8c-2.8,10.5-7.1,35-6.8,38.5
	C984.6,240.4,985.2,240.1,993.6,233.8L993.6,233.8z M770.7,376.3c-4.4-5.7-12.3-15.7-17.5-22.2l-9.5-11.9l-3.7,5.9
	c-4.2,6.7-7.7,7.7-11.4,3.2c-3.2-3.8-2.7-5.9,3-13l4.3-5.4l-10.1-12.4c-5.6-6.8-11-13.5-12.1-14.8c-1.7-2.1-2.7-1.2-8.9,8.3
	c-3.8,5.9-7.6,10.7-8.5,10.8c-1.9,0.2-6.5-4.5-6.6-6.8c-0.1-0.9,3.2-6.6,7.2-12.7c4.6-7,7.2-12.2,7-14.4c-0.4-4.9,3.9-10.5,9.1-12.2
	c2.5-0.8,9.8-6.9,16.6-13.9c18.4-18.9,54.3-46.3,58-44.3c4.3,2.4,1,7.1-12.4,17.7c-14.5,11.5-46.5,42.5-48.1,46.7
	c-0.7,1.9,1.6,5.9,10.1,17.4l11,15l14.3-13.8c28-27,44.1-38,43.7-30c-0.1,1.9-4.3,6.4-11.4,12.3c-6.2,5.2-13.3,11.4-15.7,13.9
	c-8.3,8.5-23.1,26.2-23,27.5c0.1,0.7,7.4,11.6,16.4,24.2c17.4,24.4,18.1,26.3,12.7,32C780.8,388.1,779.2,387.3,770.7,376.3
	L770.7,376.3z M806.9,253.1c-2.8-1-2.5-3.6,1-8c3.8-4.8,10.1-5,11-0.4c0.4,1.9-0.3,3.8-1.7,4.9C813.7,252.3,809,253.8,806.9,253.1
	L806.9,253.1z"/>
<path class="st37" d=""/>
<path id="path4348" class="st38" d="M853.1,537.2l-13.6-9.8l16.7-1.3C852.9,528.6,851.7,533.2,853.1,537.2z"/>
<path id="path4351" class="st38" d="M980.3,526.2l16.7,0.9l-13.3,10.1C985.1,533.3,983.7,528.8,980.3,526.2z"/>
<path id="path5218" inkscape:connector-curvature="0" sodipodi:nodetypes="cc" class="st39" d="M792.7-74.8"/>
<path class="st37" d=""/>
<path id="path4626" class="st38" d="M856.3,107.1l-16.7-1.3l13.6-9.8C851.6,99.9,852.9,104.4,856.3,107.1z"/>
<path id="path4630" class="st38" d="M983.7,95.7l13.3,10.1l-16.7,0.9C983.7,104.3,985.1,99.8,983.7,95.7z"/>
<path id="path5220" inkscape:connector-curvature="0" sodipodi:nodetypes="cc" class="st39" d="M792.7,265.3"/>
<g id="ellipse5222" class="st40">
	<ellipse class="st41" cx="868.9" cy="139.7" rx="6" ry="2"/>
</g>
<g id="ellipse5224" class="st42">
	<ellipse class="st41" cx="892.3" cy="143.9" rx="6" ry="2"/>
</g>
<g id="ellipse5226" class="st43">
	<ellipse class="st41" cx="916.9" cy="139.7" rx="6" ry="2"/>
</g>
<g id="ellipse5228" class="st44">
	<ellipse class="st41" cx="941" cy="143.7" rx="6" ry="2"/>
</g>
<g id="ellipse5230" class="st45">
	<ellipse class="st41" cx="964.9" cy="139.7" rx="6" ry="2"/>
</g>
<radialGradient id="path4198_1_" cx="256.2158" cy="168.1288" r="176.2716" gradientTransform="matrix(1.4278 0 0 -1.4925 -77.7096 551.8907)" gradientUnits="userSpaceOnUse">
	<stop  offset="0" style="stop-color:#FFD42A"/>
	<stop  offset="1" style="stop-color:#FFD42A;stop-opacity:0"/>
</radialGradient>
<ellipse id="path4198" class="st46" cx="288.1" cy="301" rx="251.7" ry="263.1"/>
<radialGradient id="ellipse5152_1_" cx="256.2158" cy="168.1288" r="176.2716" gradientTransform="matrix(1.4278 0 0 -1.4925 -77.7096 551.8907)" gradientUnits="userSpaceOnUse">
	<stop  offset="0" style="stop-color:#FFD42A"/>
	<stop  offset="1" style="stop-color:#FFD42A;stop-opacity:0"/>
</radialGradient>
<ellipse id="ellipse5152" class="st47" cx="288.1" cy="301" rx="251.7" ry="263.1"/>
<radialGradient id="ellipse6743_1_" cx="478.7533" cy="-81.0183" r="176.2716" gradientTransform="matrix(0.7904 0 0 -0.3037 -90.2907 51.3801)" gradientUnits="userSpaceOnUse">
	<stop  offset="0" style="stop-color:#FFD42A"/>
	<stop  offset="1" style="stop-color:#FFD42A;stop-opacity:0"/>
</radialGradient>
<ellipse id="ellipse6743" class="st48" cx="288.1" cy="76" rx="139.3" ry="53.5"/>
<g id="path4785" inkscape:connector-curvature="0" sodipodi:nodetypes="cccscscccccc" class="st14">
	<path class="st15" d="M177.6,117l0,6.6c-0.1,5.2-9.7,5.8-9.5,17.6V451c0,40.7,56.4,61.8,120.4,61.8c63.9,0,120.4-21.1,120.4-61.8
		V141.3c0-11.9-9.4-12.4-9.5-17.6l0-6.6c-38.7-0.1-78.7-4.4-114.7,7.2C245.5,113.4,212,116.9,177.6,117L177.6,117z"/>
</g>
<g id="path5371" inkscape:connector-curvature="0" sodipodi:nodetypes="cccscscccccc" class="st14">
	<path class="st15" d="M177.6,117l0,6.6c-0.1,5.2-9.7,5.8-9.5,17.6V451c0,40.7,56.4,61.8,120.4,61.8c63.9,0,120.4-21.1,120.4-61.8
		V141.3c0-11.9-9.4-12.4-9.5-17.6l0-6.6c-38.7-0.1-78.7-4.4-114.7,7.2C245.5,113.4,212,116.9,177.6,117L177.6,117z"/>
</g>
<path id="path4232" inkscape:connector-curvature="0" sodipodi:nodetypes="cccscscccccc" class="st49" d="M177.6,117l0,6.6
	c-0.1,5.2-9.7,5.8-9.5,17.6V451c0,40.7,56.4,61.8,120.4,61.8c63.9,0,120.4-21.1,120.4-61.8V141.3c0-11.9-9.4-12.4-9.5-17.6l0-6.6
	c-38.7-0.1-78.7-4.4-114.7,7.2C245.5,113.4,212,116.9,177.6,117L177.6,117z"/>
<path id="path4228" inkscape:connector-curvature="0" sodipodi:nodetypes="sss" class="st50" d="M174.4,113.7c0,22,227.7,22,227.7,0
	S174.4,91.7,174.4,113.7z"/>
<path id="path4224" inkscape:connector-curvature="0" sodipodi:nodetypes="sss" class="st51" d="M174.4,109.3c0,22,227.7,22,227.7,0
	S174.4,87.3,174.4,109.3z"/>
<path id="path4191" inkscape:connector-curvature="0" sodipodi:nodetypes="sss" class="st50" d="M174.4,104.9c0,22,227.7,22,227.7,0
	C402.1,82.8,174.4,82.8,174.4,104.9z"/>
<path id="path4181" inkscape:connector-curvature="0" sodipodi:nodetypes="sss" class="st51" d="M174.4,100.5c0,22,227.7,22,227.7,0
	C402.1,78.4,174.4,78.4,174.4,100.5z"/>
<path id="path4183" inkscape:connector-curvature="0" sodipodi:nodetypes="sss" class="st50" d="M174.4,96.1c0,22,227.7,22,227.7,0
	C402.1,74,174.4,74,174.4,96.1z"/>
<path id="path4189" inkscape:connector-curvature="0" sodipodi:nodetypes="sss" class="st51" d="M174.4,91.7c0,22,227.7,22,227.7,0
	S174.4,69.6,174.4,91.7z"/>
<path id="path4187" inkscape:connector-curvature="0" sodipodi:nodetypes="sss" class="st50" d="M174.4,87.3c0,22,227.7,22,227.7,0
	S174.4,65.2,174.4,87.3z"/>
<path id="path4144" inkscape:connector-curvature="0" sodipodi:nodetypes="sss" class="st52" d="M174.4,82.8c0,22,227.7,22,227.7,0
	S174.4,60.8,174.4,82.8z"/>
<path id="path4169" inkscape:connector-curvature="0" sodipodi:nodetypes="sss" class="st53" d="M174.4,82.8c0,22,227.7,22,227.7,0
	S174.4,60.8,174.4,82.8z"/>
<path id="path4158" inkscape:connector-curvature="0" sodipodi:nodetypes="sss" class="st54" d="M177.2,82.7
	c0.5,18.6,221.9,18.2,222.1,0.1C399.6,64.6,176.7,64.4,177.2,82.7L177.2,82.7z"/>
<g id="path4243" inkscape:connector-curvature="0" sodipodi:nodetypes="sssss" class="st55">
	
		<radialGradient id="SVGID_1_" cx="407.2767" cy="-573.3657" r="120.5593" gradientTransform="matrix(0.8903 0 0 -0.266 -74.3349 317.2471)" gradientUnits="userSpaceOnUse">
		<stop  offset="0" style="stop-color:#B3B3B3"/>
		<stop  offset="1" style="stop-color:#CCCCCC"/>
	</radialGradient>
	<path class="st56" d="M180.9,462.9c-0.2,22.1,52.6,39,108,39c55.5,0,106.2-16.9,106.6-38.9c0.2-8.6-51-25.2-106.4-25.2
		C233.6,437.7,181,454.2,180.9,462.9L180.9,462.9z"/>
</g>
<path id="path4247" inkscape:connector-curvature="0" sodipodi:nodetypes="czcc" class="st57" d="M179.5,143.5
	c0,0,7.3,12.2,106.6,13.2c99.3,1.1,110.9-13.2,110.9-13.2l0,0"/>
<path id="path4267" inkscape:connector-curvature="0" sodipodi:nodetypes="szs" class="st58" d="M183.4,82.7
	c0.5,13.3,209.3,13.5,209.7,0.1C393.5,69.3,183,69.9,183.4,82.7L183.4,82.7z"/>
<path id="path4327" inkscape:connector-curvature="0" sodipodi:nodetypes="csc" class="st59" d="M184.9,83
	c8.3-6.9,61.9-8.5,107.9-8.5c43,0.1,86.9,2.5,99.3,8.2"/>
<radialGradient id="path4335_1_" cx="312.1819" cy="164.6988" r="35.6071" gradientTransform="matrix(1.0443 -2.348942e-02 -1.813097e-02 -1.0944 -95.5865 436.1435)" gradientUnits="userSpaceOnUse">
	<stop  offset="0" style="stop-color:#FFD42A"/>
	<stop  offset="1" style="stop-color:#FFD42A;stop-opacity:0"/>
</radialGradient>
<ellipse id="path4335" class="st60" cx="227.4" cy="248.6" rx="41.6" ry="45.7"/>
<radialGradient id="ellipse4170_1_" cx="312.1819" cy="164.6988" r="35.6071" gradientTransform="matrix(1.0443 -2.348942e-02 -1.813097e-02 -1.0944 -35.9256 492.0788)" gradientUnits="userSpaceOnUse">
	<stop  offset="0" style="stop-color:#FFD42A"/>
	<stop  offset="1" style="stop-color:#FFD42A;stop-opacity:0"/>
</radialGradient>
<ellipse id="ellipse4170" class="st61" cx="287.1" cy="304.5" rx="41.6" ry="45.7"/>
<radialGradient id="ellipse4174_1_" cx="312.1819" cy="164.6988" r="35.6071" gradientTransform="matrix(1.0443 -2.348942e-02 -1.813097e-02 -1.0944 23.7284 396.4663)" gradientUnits="userSpaceOnUse">
	<stop  offset="0" style="stop-color:#FFD42A"/>
	<stop  offset="1" style="stop-color:#FFD42A;stop-opacity:0"/>
</radialGradient>
<ellipse id="ellipse4174" class="st62" cx="346.7" cy="208.9" rx="41.6" ry="45.7"/>
<radialGradient id="ellipse4178_1_" cx="312.1819" cy="164.6987" r="35.6072" gradientTransform="matrix(1.0443 -2.348942e-02 -1.813097e-02 -1.0944 -108.4233 605.4012)" gradientUnits="userSpaceOnUse">
	<stop  offset="0" style="stop-color:#FFD42A"/>
	<stop  offset="1" style="stop-color:#FFD42A;stop-opacity:0"/>
</radialGradient>
<ellipse id="ellipse4178" class="st63" cx="214.6" cy="417.8" rx="41.6" ry="45.7"/>
<radialGradient id="ellipse4182_1_" cx="312.1819" cy="164.6987" r="35.6072" gradientTransform="matrix(1.0443 -2.348942e-02 -1.813097e-02 -1.0944 -64.643 563.5198)" gradientUnits="userSpaceOnUse">
	<stop  offset="0" style="stop-color:#FFD42A"/>
	<stop  offset="1" style="stop-color:#FFD42A;stop-opacity:0"/>
</radialGradient>
<ellipse id="ellipse4182" class="st64" cx="258.4" cy="375.9" rx="41.6" ry="45.7"/>
<radialGradient id="ellipse4186_1_" cx="312.1819" cy="164.6986" r="35.6072" gradientTransform="matrix(1.0443 -2.348942e-02 -1.813097e-02 -1.0944 24.6743 611.0693)" gradientUnits="userSpaceOnUse">
	<stop  offset="0" style="stop-color:#FFD42A"/>
	<stop  offset="1" style="stop-color:#FFD42A;stop-opacity:0"/>
</radialGradient>
<ellipse id="ellipse4186" class="st65" cx="347.7" cy="423.5" rx="41.6" ry="45.7"/>
<radialGradient id="ellipse4190_1_" cx="312.1819" cy="164.6987" r="35.6072" gradientTransform="matrix(1.0443 -2.348942e-02 -1.813097e-02 -1.0944 -65.8591 365.2505)" gradientUnits="userSpaceOnUse">
	<stop  offset="0" style="stop-color:#FFD42A"/>
	<stop  offset="1" style="stop-color:#FFD42A;stop-opacity:0"/>
</radialGradient>
<ellipse id="ellipse4190" class="st66" cx="257.2" cy="177.7" rx="41.6" ry="45.7"/>
<radialGradient id="ellipse4194_1_" cx="312.1819" cy="164.6987" r="35.6071" gradientTransform="matrix(1.0443 -2.348942e-02 -1.813097e-02 -1.0944 42.6458 530.9278)" gradientUnits="userSpaceOnUse">
	<stop  offset="0" style="stop-color:#FFD42A"/>
	<stop  offset="1" style="stop-color:#FFD42A;stop-opacity:0"/>
</radialGradient>
<ellipse id="ellipse4194" class="st67" cx="365.7" cy="343.3" rx="41.6" ry="45.7"/>
<radialGradient id="ellipse4605_1_" cx="312.1819" cy="164.6987" r="35.6072" gradientTransform="matrix(1.0443 -2.348942e-02 -1.813097e-02 -1.0944 -55.3293 661.3027)" gradientUnits="userSpaceOnUse">
	<stop  offset="0" style="stop-color:#FFD42A"/>
	<stop  offset="1" style="stop-color:#FFD42A;stop-opacity:0"/>
</radialGradient>
<ellipse id="ellipse4605" class="st68" cx="267.7" cy="473.7" rx="41.6" ry="45.7"/>
<radialGradient id="ellipse4272_1_" cx="405.3542" cy="140.4028" r="35.6071" gradientTransform="matrix(0.8367 -1.868907e-02 -1.452724e-02 -0.8708 -4.3735 588.2379)" gradientUnits="userSpaceOnUse">
	<stop  offset="0" style="stop-color:#FFD42A"/>
	<stop  offset="1" style="stop-color:#FFD42A;stop-opacity:0"/>
</radialGradient>
<ellipse id="ellipse4272" class="st69" cx="332.8" cy="458.4" rx="33.3" ry="36.3"/>
<path id="path4266" inkscape:connector-curvature="0" class="st70" d="M161.1,466.8l-4-0.3l0.9-26.3c0.5-14.5,1.3-34.9,1.8-45.3
	c1.1-21.7-1-19.2,16.5-19.7c12.9-0.3,16.8,0.1,16.3,2c-0.5,1.8-2.5,2.3-9,2.4l-5.2,0V390v10.4h5.5c6.2,0,6.4,0.1,7.7,3.1l0.9,2.2
	l-7,0.4l-7,0.4l-0.9,4.3c-0.5,2.4-1.3,15.9-1.8,30.2l-1,25.9L170,467C167.3,467,163.3,467,161.1,466.8L161.1,466.8z M196.5,464.9
	c0-5.5,14-42.9,22.2-59.1c3.1-6.1,7.2-15.1,9.1-20c2-4.9,3.9-9.3,4.2-9.7c0.4-0.5,2.4-0.7,5.1-0.6c5.2,0.2,9.2,2.2,11,5.6
	c0.7,1.3,1.3,13.2,1.3,26.5c0,13.3,0.7,30.6,1.5,38.5c0.8,7.9,0.9,15.8,0.3,17.6c-1.1,3.1-1.4,3.3-5.2,3.5c-2.2,0.1-6.8,0-10.1-0.2
	l-6-0.4v-5v-5h-9.7h-9.7l-0.8,1.9c-0.4,1.1-0.9,3.3-1.1,4.9c-0.4,3.4-1.3,3.9-7.6,3.9C196.6,467.2,196.5,467.1,196.5,464.9
	L196.5,464.9z M229.1,443.5c0.5-4.8,1.5-12.6,2.2-17.2c1.5-9.1,1.9-28.1,0.6-27.5c-3,1.3-14.1,26.2-15.9,35.8c-0.8,4-2.1,9.2-3,11.6
	c-2.1,5.8-1.7,6.1,7.6,6.1h7.6L229.1,443.5L229.1,443.5z M261.9,466.7c-1.8-0.5-2.1-3.2-1.9-18.7c0.3-33.5,2.8-70.7,4.7-71.7
	c4.3-2.2,20.7,0.3,32.5,5c19.2,7.7,24.7,29,12.1,47.3c-3.3,4.9-9.5,11.1-12.7,12.9c-5.3,2.9-4.8,4.1,5.5,13.3
	c5.3,4.8,10.1,9.4,10.6,10.2c0.8,1.4,0.5,1.6-4.1,2c-2.8,0.2-7.1,0.2-9.7,0l-4.7-0.4l-4-7.8l-4-7.8l-0.9,7.6
	c-0.5,4.2-1.3,7.7-1.7,7.9C282.2,467.1,264,467.3,261.9,466.7L261.9,466.7z M291.1,435.8c14.3-20.8,13.5-38.7-2.3-51.6l-3.8-3.1
	l-0.4,28.9c-0.2,15.9,0,29.3,0.3,29.7C286.2,441.1,288.3,439.8,291.1,435.8z M320.4,465c0-7.4,23.2-84.5,26.5-88.1
	c1.6-1.8,6.8-1.9,10.2-0.4c2.6,1.2,5.1,8,8.5,22.8c2.2,9.5,6.3,32,6.3,34.5c0,5.6,5-7.7,11.1-29.8c2.3-8.4,5.3-18.2,6.7-21.8
	l2.4-6.6l4.3-0.2c2.6-0.1,5.5,0.2,7.4,0.9c4.1,1.4,6.2,7.2,9.8,27.9c1.6,8.9,3.5,19.3,4.3,23.3c0.8,3.9,2,12.3,2.8,18.5
	s1.7,13.1,2.1,15.2s0.2,4.2-0.4,4.6c-0.7,0.4-4.9,0.9-9.5,1.1c-13.5,0.6-13.1,0.9-16.1-15c-1.4-7.5-3-21.8-3.6-31.9
	c-0.6-10.5-1.4-17.3-2-16.1c-3.7,7.5-13,42.1-14.5,54.4c-0.5,4.2-1.6,7.8-2.3,8c-0.7,0.2-5,0.5-9.6,0.7c-6.3,0.2-8.4,0.1-8.9-0.5
	c-0.8-1-4.1-21.3-7-44c-1.2-9-2.3-16.4-2.6-16.5c-0.6-0.2-9.7,31.8-13.6,47.5c-1.6,6.7-3.6,12.6-4.4,13s-2.9,0.7-4.7,0.7
	C320.8,467.2,320.4,467,320.4,465L320.4,465z"/>
<g id="path4914" class="st40">
	<ellipse class="st41" cx="231.6" cy="81.7" rx="6.9" ry="2.3"/>
</g>
<g id="ellipse5096" class="st42">
	<ellipse class="st41" cx="258.7" cy="86.5" rx="6.9" ry="2.3"/>
</g>
<path id="path4238" inkscape:connector-curvature="0" class="st71" d="M439.4,444.7c-2.2-2-4.9-6.5-6-10c-4.5-14.1-1.5-42,6.5-60.1
	c7-16,13.5-20.8,37.9-28.3c5.3-1.6,5.6-2.3,12.5-22.5c3.9-11.5,6.9-21,6.7-21.3c-0.2-0.3-2.1,0.6-4.3,1.9c-2.2,1.3-6.9,2.6-10.4,2.9
	c-5.7,0.5-6.9-0.2-11-6.2c-4-5.9-4.7-8.1-5.3-17.1l-0.7-10.3l-11.2,11.4c-8.6,8.8-12.5,11.6-16.9,12.1c-12,1.3-16.9-6.2-21.1-32.6
	l-2.2-14l-6.5,7.8c-7.8,9.4-20.7,19-26.1,19.5l-4,0.4l6.7,8.9c12.5,16.6,15.1,34.7,8.2,58.2c-8.4,28.7-20.8,39.5-26.9,23.6
	c-3.8-9.9-7.6-31.6-10.5-59.7l-2.7-26l-3.8-3.2c-4.2-3.6-4.5-8-0.6-9.4c2.2-0.8,2.5-2.2,1.8-11.3l-0.8-10.4l-5.1,9.2
	c-7.9,14.3-12.6,18.3-21.3,18c-8.9-0.3-15.7-6.6-22.6-20.9l-4.4-9.2l-4.4,9.2c-7.5,15.6-20.2,19.2-28.3,8.1
	c-4.7-6.6-7.6-14.6-12-34.2c-1.8-7.9-4.3-15.4-5.5-16.8c-3.5-3.8-13.5-2.3-14.6,2.2c-0.5,2-1.4,16.5-2,32c-1.3,32.2-3.2,44-8.4,52.1
	c-10.3,15.9-23.7,6.5-39.4-27.4c-6.3-13.7-13.8-33-14-36.1c-0.2-3.3,5.5-7.1,11.3-7.6l5.6-0.4l7.1,19c14.3,38.1,21.8,51.2,25.5,44.9
	c4.3-7.3,5.3-21,3.6-50.1c-0.9-15.4-1.6-31.1-1.5-34.7l0.1-6.6l17.1-0.4c9.4-0.2,18.9-0.1,21.1,0.3c5,0.9,7.2,6.4,12.1,30.9
	c4.7,23.7,6,27,10.4,26.6c2.5-0.2,4.5-2.7,7.1-8.9c4.1-9.5,4.4-11.8,3.7-32.1c-0.8-23.8,4.9-34.7,18-34.1c6,0.3,7.8,1.2,10.5,5.8
	c1.8,3,3.4,7.4,3.5,9.8c0.5,6.8-3.9,21.6-8.2,27.5c-4.4,6.1-4.5,8.1-1,17.3c5.3,14,12.1,23.5,16.4,23.1c1.8-0.1,12.4-20.8,15.3-30
	c2-6.3,2.7-13.3,3-28.1c0.5-34.6,6.1-65.2,15.9-87.3c7-15.8,12.8-22.2,20.9-22.9c7.6-0.7,11.6,3,16.9,15.6
	c3.4,8.1,4.2,11.9,5.1,24.2c2.1,29.7-7.5,49.9-31.4,65.9c-12.1,8.1-11.7,6.4-10.2,44.2l0.9,23.1l3.5,0.9c9.6,2.4,27-9.8,37.9-26.6
	c5.2-8,5.6-9.4,5.7-19.7c0.1-23.4,8.3-63.7,17.5-85.5c9.1-21.7,20.6-30.1,25.8-18.9c1.8,3.9,2.5,8.3,2.8,19.3
	c0.7,22.1-4.8,44.1-17.8,71.6l-10.2,21.7l-0.1,14.7c-0.1,15,2.6,35.1,5.3,39.1c2.2,3.3,9.6-2.9,19.9-16.7
	c8.6-11.5,10.4-15.1,14.2-28.9c3.9-14.3,4.8-15.9,8.5-16.7c4.7-1,12.4,5,12.8,10.1c0.1,1.8-0.8,6.4-2.1,10.1
	c-3.5,10-7.8,31.4-8.1,40.4c-0.5,14.8,5,17.6,13.3,6.9c7.3-9.6,12.1-19.7,15.7-33.5c1.8-6.8,4.3-12.9,5.6-13.6
	c4.4-2.4,14.2,5.5,14.7,11.8c0.1,1.5-2.4,10.3-5.6,19.5c-17.9,51.4-21.2,61.3-20.7,62.1c1.2,1.7,20.3-12.1,33.7-24.3
	c13.7-12.5,18.6-14.3,19.2-7.2c0.5,6.8-43.7,39.9-54.5,40.8c-1.7,0.1-6.1,8.4-13.6,25.7c-11.8,27.1-27.6,57.9-35.1,68.4
	C448.2,448.9,444.9,449.7,439.4,444.7L439.4,444.7z M449.3,425.4c6.6-10.2,30.5-68.5,28.8-70.5c-1.2-1.5-19.4,6.9-24.5,11.4
	c-9,7.8-14.9,25.8-15.3,46c-0.2,9.8,2.4,19.6,5.1,19.3C444.5,431.5,447.1,428.7,449.3,425.4L449.3,425.4z M382.2,355
	c11.5-21.7,9-44-6.5-59.5c-9.7-9.7-9.9-9.3-8.1,15.3c1.5,20.2,5.1,47.6,6.8,51.4C375.9,365.4,377.5,363.9,382.2,355z M311.4,215
	c3.6-8,4.9-14.5,3.7-18.5c-2.1-6.9-9.9-9.3-10.8-3.2c-1.1,7.7,1.5,27.9,3.6,27.8C308.4,221,310,218.3,311.4,215L311.4,215z
	 M446.4,170.8c1.8-8.4,2.9-16.5,2.5-17.9c-1.5-5.5-13.6,35.2-14.7,49.6C433.3,212.1,442.9,187.3,446.4,170.8L446.4,170.8z
	 M375.9,190.5c19-14.2,26.2-33.1,21.2-55.9c-2.1-9.5-6.6-18.5-9.2-18.3c-2.4,0.2-10.4,19.9-14.6,35.7c-3.2,12.2-8.2,40.4-7.9,44.6
	C365.5,198.2,366.1,197.8,375.9,190.5L375.9,190.5z M118.1,355.4c-5.1-6.6-14.2-18.1-20.3-25.7l-10.9-13.8l-4.2,6.8
	c-4.8,7.8-8.9,8.9-13.2,3.7c-3.7-4.4-3.1-6.9,3.4-15.1l5-6.3l-11.7-14.3c-6.4-7.9-12.7-15.6-13.9-17.1c-2-2.5-3.1-1.4-10.3,9.5
	c-4.4,6.8-8.8,12.4-9.8,12.5c-2.2,0.2-7.5-5.3-7.7-7.9c-0.1-1.1,3.7-7.7,8.3-14.7c5.3-8,8.3-14.1,8.1-16.6
	c-0.4-5.6,4.5-12.2,10.5-14.1c2.9-0.9,11.4-8,19.2-16.1c21.3-21.8,62.8-53.6,67-51.2c4.9,2.8,1.1,8.2-14.3,20.5
	c-16.7,13.3-53.8,49.2-55.6,54c-0.9,2.2,1.8,6.8,11.7,20.2l12.8,17.4l16.6-16c32.4-31.3,51-44,50.6-34.6c-0.1,2.2-5,7.4-13.2,14.3
	c-7.2,6-15.4,13.2-18.1,16c-9.6,9.8-26.8,30.3-26.7,31.8c0.1,0.8,8.6,13.4,19,28c20.1,28.3,21,30.4,14.6,37
	C129.8,369,127.9,368,118.1,355.4L118.1,355.4z M159.9,212.8c-3.2-1.2-2.9-4.2,1.1-9.2c4.4-5.5,11.7-5.8,12.7-0.4
	c0.4,2.3-0.3,4.4-2,5.6C167.8,211.9,162.3,213.7,159.9,212.8L159.9,212.8z"/>
<g id="ellipse5098" class="st43">
	<ellipse class="st41" cx="287.1" cy="81.7" rx="6.9" ry="2.3"/>
</g>
<g id="ellipse5100" class="st44">
	<ellipse class="st41" cx="315" cy="86.4" rx="6.9" ry="2.3"/>
</g>
<g id="ellipse5102" class="st45">
	<ellipse class="st41" cx="342.6" cy="81.7" rx="6.9" ry="2.3"/>
</g>
<text transform="matrix(1 0 0 1 422.9424 575.7588)" class="st72 st73">  </text>
</svg>
